<?xml version="1.0" encoding="iso-8859-1"?><!-- Generator: Adobe Illustrator 19.2.1, SVG Export Plug-In . SVG Version: 6.00 Build 0)  --><svg xmlns="http://www.w3.org/2000/svg" xmlns:xlink="http://www.w3.org/1999/xlink" version="1.1" id="Layer_1" x="0px" y="0px" viewBox="0 0 80 80" style="enable-background:new 0 0 80 80;" xml:space="preserve" width="80" height="80">
<g>
	<g>
		<rect x="2.5" y="2.5" style="fill:#F2FAFF;" width="51" height="51"/>
	</g>
	<g>
		<path style="fill:#788B9C;" d="M53,3v50H3V3H53 M54,2H2v52h52V2L54,2z"/>
	</g>
</g>
<g>
	<polygon style="fill:#8BB7F0;" points="26.5,77.5 26.5,52.207 52.207,26.5 77.5,26.5 77.5,77.5  "/>
	<g>
		<path style="fill:#4E7AB5;" d="M77,27v50H27V52.414L52.414,27H77 M78,26H52L26,52v26h52V26L78,26z"/>
	</g>
</g>
<g>
	<rect x="45.357" y="56" style="fill:#FFFFFF;" width="15" height="6"/>
</g>
<g>
	<polygon style="fill:#FFFFFF;" points="56.765,40 49.187,40 38.857,68 45.507,68 52.729,45.342 52.984,45.342 60.207,68 66.857,68     "/>
</g>
<line style="fill:none;stroke:#788B9C;stroke-width:4;stroke-miterlimit:10;" x1="13" y1="19" x2="41" y2="19"/>
<line style="fill:none;stroke:#788B9C;stroke-width:4;stroke-miterlimit:10;" x1="27" y1="11" x2="27" y2="19"/>
<path style="fill:none;stroke:#788B9C;stroke-width:4;stroke-miterlimit:10;" d="M37,19c0,0-4.752,20-24,20"/>
<path style="fill:none;stroke:#788B9C;stroke-width:4;stroke-miterlimit:10;" d="M17,25c0,0,6.901,10,18,10"/>
</svg>